<?xml version="1.0" encoding="utf-8"?><!DOCTYPE svg PUBLIC "-//W3C//DTD SVG 1.1//EN" "http://www.w3.org/Graphics/SVG/1.1/DTD/svg11.dtd"><svg xmlns="http://www.w3.org/2000/svg" width="320" height="320" viewBox="0 0 33 33" shape-rendering="crispEdges"><path fill="#F5F1E9" d="M0 0h33v33H0z"/><path stroke="#344740" d="M2 2.5h7m4 0h1m4 0h5m1 0h7M2 3.5h1m5 0h1m2 0h1m2 0h1m2 0h1m1 0h1m2 0h1m1 0h1m5 0h1M2 4.5h1m1 0h3m1 0h1m1 0h5m1 0h1m1 0h1m2 0h1m2 0h1m1 0h3m1 0h1M2 5.5h1m1 0h3m1 0h1m1 0h1m2 0h1m1 0h2m2 0h1m4 0h1m1 0h3m1 0h1M2 6.5h1m1 0h3m1 0h1m1 0h3m1 0h1m1 0h1m2 0h4m1 0h1m1 0h3m1 0h1M2 7.5h1m5 0h1m1 0h1m1 0h1m1 0h1m2 0h1m1 0h1m2 0h1m1 0h1m5 0h1M2 8.5h7m1 0h1m1 0h1m1 0h1m1 0h1m1 0h1m1 0h1m1 0h1m1 0h7M10 9.5h2m1 0h2m2 0h2m1 0h1m1 0h1M2 10.5h1m1 0h5m3 0h5m2 0h1m1 0h1m2 0h5M3 11.5h2m1 0h1m2 0h1m2 0h1m1 0h1m1 0h1m1 0h1m1 0h2m2 0h3m3 0h1M2 12.5h4m1 0h2m1 0h2m1 0h2m2 0h4m4 0h2M2 13.5h1m6 0h1m7 0h2m3 0h1m4 0h1m1 0h1M4 14.5h1m2 0h5m5 0h1m1 0h1m5 0h1m1 0h2M5 15.5h1m1 0h1m1 0h4m1 0h2m2 0h1m1 0h7m3 0h1M2 16.5h5m1 0h3m3 0h5m6 0h4M7 17.5h1m2 0h1m1 0h1m2 0h1m5 0h2m6 0h1M4 18.5h1m1 0h1m1 0h1m1 0h4m2 0h2m1 0h1m1 0h1m1 0h1m3 0h2M2 19.5h1m1 0h1m4 0h1m4 0h1m3 0h1m2 0h6m1 0h1m1 0h1M2 20.5h1m2 0h5m3 0h1m3 0h1m2 0h1m1 0h1m1 0h1m1 0h1m1 0h1M2 21.5h1m2 0h1m3 0h3m2 0h1m1 0h1m3 0h1m8 0h1M2 22.5h1m1 0h1m3 0h1m1 0h2m1 0h2m2 0h3m2 0h5m1 0h3M10 23.5h2m1 0h4m1 0h1m3 0h1m3 0h5M2 24.5h7m2 0h1m2 0h5m2 0h2m1 0h1m1 0h3M2 25.5h1m5 0h1m1 0h1m1 0h2m1 0h1m1 0h2m1 0h3m3 0h1m3 0h1M2 26.5h1m1 0h3m1 0h1m1 0h2m1 0h1m2 0h2m1 0h2m1 0h5m1 0h1M2 27.5h1m1 0h3m1 0h1m1 0h1m1 0h1m5 0h3m1 0h1m4 0h4M2 28.5h1m1 0h3m1 0h1m1 0h1m3 0h2m1 0h1m1 0h1m3 0h7M2 29.5h1m5 0h1m2 0h2m1 0h1m3 0h1m1 0h4m3 0h1m1 0h1M2 30.5h7m1 0h2m2 0h1m2 0h3m1 0h1m1 0h2m2 0h2"/></svg>
